<svg xmlns="http://www.w3.org/2000/svg" width="300" height="200" viewBox="0 0 300 200">
  <rect width="300" height="200" fill="#f8f9fa"/>
  <g fill="#d1d5db">
    <rect x="50" y="30" width="200" height="20" rx="2"/>
    <rect x="50" y="60" width="140" height="10" rx="2"/>
    <rect x="50" y="80" width="180" height="10" rx="2"/>
    <rect x="50" y="100" width="160" height="10" rx="2"/>
    <rect x="50" y="130" width="70" height="30" rx="15"/>
  </g>
  <path d="M150 180 A 10 10 0 0 1 140 170 L 140 170 A 10 10 0 0 1 130 160 L 130 160 A 10 10 0 0 1 120 150 L 120 150 A 10 10 0 0 1 110 140 L 110 140" stroke="#a1a1aa" fill="none" stroke-width="2" stroke-dasharray="4"/>
</svg> 